<svg width="19" height="23" viewBox="0 0 19 23" fill="none" xmlns="http://www.w3.org/2000/svg">
<path d="M17.5647 9.18832C17.2428 9.48242 16.8529 9.62454 16.3952 9.61468C15.9374 9.60385 15.5464 9.45269 15.2221 9.1612L10.6418 5.044L10.7079 21.3672C10.7096 21.782 10.5559 22.1305 10.2469 22.4129C9.93893 22.6942 9.55611 22.8358 9.0984 22.8377C8.64069 22.8395 8.25619 22.701 7.94489 22.4222C7.63467 22.1423 7.47871 21.795 7.47703 21.3803L7.41092 5.05708L2.82383 9.24802C2.50193 9.54212 2.11858 9.69007 1.6738 9.69187C1.23009 9.69367 0.846105 9.54883 0.521832 9.25734C0.197559 8.96586 0.0346069 8.61858 0.0329743 8.2155C0.0313457 7.8134 0.191481 7.4653 0.513383 7.1712L7.87687 0.443644C8.03782 0.296594 8.21241 0.191942 8.40063 0.129692C8.58885 0.0684186 8.79066 0.0373451 9.00605 0.0364727C9.22144 0.0356003 9.42349 0.065038 9.6122 0.124785C9.80092 0.185508 9.97635 0.288742 10.1385 0.434484L17.5968 7.13861C17.894 7.4058 18.0435 7.74045 18.0451 8.14255C18.0467 8.54563 17.8866 8.89421 17.5647 9.18832V9.18832Z" fill="white"/>
</svg>
