<svg width="10" height="16" viewBox="0 0 10 16" fill="none" xmlns="http://www.w3.org/2000/svg">
<path d="M1.90723 15.8108L9.03248 8.50131C9.15762 8.37292 9.22766 8.20073 9.22766 8.02144C9.22766 7.84215 9.15762 7.66995 9.03248 7.54156L1.90723 0.229313C1.84893 0.169441 1.77924 0.121853 1.70225 0.0893605C1.62526 0.0568669 1.54254 0.0401271 1.45898 0.0401271C1.37542 0.0401271 1.2927 0.0568669 1.21571 0.0893605C1.13872 0.121853 1.06902 0.169441 1.01073 0.229313C0.890799 0.352097 0.823656 0.516926 0.823656 0.688564C0.823656 0.860201 0.890799 1.02503 1.01073 1.14781L7.7111 8.02144L1.01073 14.8937C0.891209 15.0164 0.824327 15.1809 0.824327 15.3523C0.824327 15.5236 0.891209 15.6881 1.01073 15.8108C1.06902 15.8707 1.13872 15.9183 1.21571 15.9508C1.2927 15.9833 1.37541 16 1.45898 16C1.54254 16 1.62526 15.9833 1.70225 15.9508C1.77924 15.9183 1.84893 15.8707 1.90723 15.8108Z" fill="#436DE1"/>
</svg>
