<svg width="178" height="80" viewBox="0 0 178 80" fill="none" xmlns="http://www.w3.org/2000/svg">
<path fill-rule="evenodd" clip-rule="evenodd" d="M11.2757 73.4174C11.7055 73.0977 11.9963 72.6885 12.148 72.1771C12.3123 71.6784 12.3881 70.8984 12.3881 69.8626V45.6059H8.19134C7.34439 45.6059 6.54801 45.7849 5.82748 46.143C5.10694 46.501 4.56338 46.9869 4.20944 47.6007C3.99454 47.9587 3.80493 48.3423 3.65324 48.7515C3.4889 49.1607 3.36249 49.6593 3.24873 50.2348C3.1476 50.8102 3.05911 51.4879 3.00855 52.2807C2.95798 53.0734 2.90742 54.0069 2.8695 55.081H0V42H29.4029V55.0682H26.5839C26.5839 53.4187 26.5334 52.1528 26.4449 51.2705C26.3564 50.3882 26.2173 49.6466 26.0404 49.0328C25.6485 47.9587 25.1049 47.1148 24.397 46.501C23.6891 45.8872 22.8422 45.5803 21.8436 45.5803H17.217V69.8371C17.217 70.8728 17.2928 71.6528 17.4319 72.1515C17.5709 72.6502 17.8617 73.0849 18.2788 73.443H18.1777C18.6075 73.7243 19.0752 73.9416 19.5808 74.0823C20.0991 74.223 20.7185 74.2997 21.4643 74.2997H22.7537V77.9311H6.80083V74.2741H8.12813C9.54392 74.2741 10.6058 73.9928 11.3137 73.4174H11.2757Z" fill="#2B2A29"/>
<path fill-rule="evenodd" clip-rule="evenodd" d="M55.2033 70.7705C56.3409 69.5174 57.2132 67.9702 57.8326 66.1161C58.452 64.2748 58.768 62.2544 58.768 60.0679C58.768 55.9121 57.7441 52.4852 55.6836 49.8C54.6218 48.3295 53.3324 47.2682 51.8028 46.6033C50.2733 45.9384 48.3771 45.6059 46.1144 45.6059H42.398V74.3252H46.2661C48.2887 74.3252 50.0205 74.0439 51.4489 73.4685C52.89 72.8931 54.1414 71.998 55.2033 70.7705ZM36.5452 73.4685C36.975 73.1105 37.2531 72.6757 37.3922 72.1771C37.5312 71.6784 37.6071 70.8984 37.6071 69.8626V50.0174C37.6071 49.0072 37.5312 48.2656 37.3922 47.7541C37.2531 47.2554 36.9624 46.8207 36.5452 46.4626H36.6463C36.2165 46.1813 35.7488 45.9639 35.2053 45.8233C34.6743 45.6826 34.0549 45.6059 33.347 45.6059H32.0703V42H49.085C51.5627 42 53.699 42.4475 55.494 43.3426C57.289 44.2377 58.8818 45.6571 60.3102 47.5879C61.5111 49.2374 62.4592 51.1554 63.1291 53.342C63.7991 55.5285 64.1404 57.7534 64.1404 60.0167C64.1404 62.459 63.7865 64.7479 63.0786 66.8961C62.3707 69.0443 61.3468 71.0007 59.9942 72.7525C57.2637 76.2049 53.9771 77.9311 50.1469 77.9311H32.0703V74.2741H33.347C34.7249 74.2741 35.8247 73.9928 36.6463 73.4174L36.5452 73.4685Z" fill="#2B2A29"/>
<path fill-rule="evenodd" clip-rule="evenodd" d="M94.9717 73.4174C95.4268 73.0977 95.7428 72.6885 95.9071 72.1771C96.0715 71.6784 96.1473 70.8984 96.1473 69.8626V49.3141C94.3776 54.122 92.6331 58.9043 90.9139 63.6738C89.1821 68.4433 87.4756 73.2 85.7691 77.9311H83.1145L72.4834 49.2118V69.8626C72.4834 70.8984 72.5593 71.6784 72.6983 72.1771C72.8374 72.6757 73.1408 73.1105 73.6085 73.4685H73.5579C74.3417 74.0439 75.4035 74.3252 76.7434 74.3252H78.0202V77.9311H63.8749V74.2741H65.2022C66.618 74.2741 67.6799 73.9928 68.3878 73.4174H68.3372C68.7923 73.0977 69.0957 72.6885 69.2347 72.1771C69.3738 71.6784 69.4496 70.8984 69.4496 69.8626V50.0174C69.4496 49.0072 69.3738 48.2656 69.2347 47.7541C69.0957 47.2554 68.7923 46.8207 68.3246 46.4626H68.3751C67.5914 45.8872 66.5295 45.6059 65.1896 45.6059H63.8623V42H75.0875L85.4531 69.9138L95.6164 42H106.627V45.6571H105.249C103.871 45.6571 102.822 45.9384 102.114 46.5138H102.164C101.709 46.8334 101.393 47.2426 101.229 47.7285C101.065 48.2144 100.989 48.9689 100.989 50.0174V69.8626C100.989 70.8984 101.065 71.6784 101.229 72.1771C101.393 72.6757 101.697 73.1105 102.164 73.4685H102.114C102.898 74.0439 103.934 74.3252 105.249 74.3252H106.627V77.9311H90.5726V74.2741H91.8999C93.3157 74.2741 94.3649 73.9928 95.0349 73.4174H94.9717Z" fill="#2B2A29"/>
<path fill-rule="evenodd" clip-rule="evenodd" d="M124.336 60.1957C124.336 63.7377 124.109 66.6659 123.654 69.0059C123.098 71.5888 122.187 73.737 120.898 75.4121C119.457 76.857 117.75 77.5859 115.766 77.5859C114.135 77.5859 112.58 76.9849 111.114 75.7829C109.85 74.4659 109.218 72.9187 109.218 71.1668C109.218 70.3741 109.42 69.6196 109.825 68.9036C110.254 68.2003 110.798 67.8423 111.468 67.8423C112.239 67.8423 112.833 68.0469 113.238 68.4432C113.756 68.9036 114.021 69.5429 114.059 70.3869C113.971 71.039 113.718 71.6144 113.288 72.1387C112.884 72.599 112.681 73.021 112.681 73.3918C112.681 74.0311 112.934 74.5298 113.453 74.8623C113.996 75.1691 114.603 75.3098 115.26 75.2842C117.295 75.2203 118.585 73.6475 119.141 70.5787C119.571 68.277 119.849 65.5278 119.963 62.3183C119.849 62.4462 119.659 62.6124 119.406 62.8298C117.852 63.9934 116.309 64.556 114.755 64.4921C113.655 64.4665 112.454 63.9678 111.139 63.0088C110.191 62.3311 109.445 61.3337 108.902 60.0039C108.434 58.4311 108.207 56.6793 108.207 54.7357C108.207 51.9993 108.434 49.8767 108.902 48.3678C109.471 46.4626 110.444 44.8642 111.784 43.6111C113.048 42.6265 114.502 42.1406 116.132 42.1406C117.548 42.1406 118.901 42.6265 120.228 43.6111C121.833 45.1583 122.921 47.2298 123.502 49.8383C124.058 52.6259 124.336 56.0783 124.336 60.1957ZM120.001 59.876C119.912 55.4773 119.697 52.0632 119.356 49.6337C119.065 47.8819 118.61 46.4882 117.978 45.4396C117.434 44.7619 116.815 44.4295 116.12 44.4295C115.323 44.4295 114.691 44.7364 114.236 45.3501C113.579 46.1813 113.124 47.1019 112.896 48.1249C112.555 49.7616 112.378 51.5518 112.378 53.521C112.378 55.861 112.542 57.6767 112.896 58.9682C113.503 61.0908 114.54 62.1521 115.993 62.1521C117.308 62.1393 118.648 61.3849 120.001 59.876Z" fill="#2B2A29"/>
<path fill-rule="evenodd" clip-rule="evenodd" d="M142.994 64.7095C142.994 67.5993 142.666 70.1695 142.009 72.4072C141.376 73.98 140.277 75.3354 138.734 76.4734C137.761 77.1767 136.674 77.5348 135.46 77.5348C133.337 77.5348 131.63 76.8698 130.341 75.5528C129.165 74.3508 128.242 72.3561 127.585 69.5557C127.016 66.9984 126.726 63.8016 126.726 59.9528C126.726 56.04 127.067 52.5364 127.75 49.4292C128.242 47.4344 129.064 45.7721 130.202 44.4551C131.58 42.8823 133.16 42.1023 134.942 42.1023C136.813 42.1023 138.355 42.7161 139.594 43.9436C141.06 45.3885 141.781 47.0508 141.781 48.9305C141.781 49.6338 141.591 50.3115 141.225 50.9636C140.795 51.5518 140.251 51.8331 139.594 51.8331C138.077 51.8331 137.306 51.0403 137.306 49.4292C137.306 48.8154 137.496 48.1505 137.862 47.4472C138.09 46.9869 138.267 46.5777 138.381 46.2069C138.305 45.721 138.014 45.3374 137.521 45.0561C136.813 44.7492 136.093 44.5957 135.372 44.5957C134.373 44.5957 133.539 45.0177 132.869 45.8361C132.212 46.6672 131.769 48.0866 131.542 50.0813C131.2 52.9839 131.024 55.3879 131.024 57.3315C131.415 56.9607 131.757 56.6793 132.01 56.5003C133.425 55.5157 134.816 55.017 136.194 55.017C138.697 55.017 140.681 56.5643 142.173 59.6331C142.729 61.1675 142.994 62.8554 142.994 64.7095ZM138.343 65.6302C138.343 63.7249 138.153 62.0882 137.774 60.7328C137.116 58.4567 136.143 57.3187 134.841 57.3187C133.665 57.3187 132.439 58.0092 131.175 59.403C131.175 59.403 131.112 59.4669 131.011 59.5948C131.011 63.1367 131.137 66.1161 131.39 68.5456C131.63 70.6426 132.111 72.3816 132.856 73.7626C133.349 74.7216 133.994 75.2075 134.803 75.2459C135.41 75.2715 135.953 75.003 136.446 74.4148C137.053 73.7371 137.496 72.7013 137.774 71.282C138.153 69.1721 138.343 67.2925 138.343 65.6302Z" fill="#2B2A29"/>
<path d="M165 20L146 0C153.511 16.4294 153.468 25.1537 146 40L165 20Z" fill="#6378A5"/>
<path d="M146 46.5L178 13C162.313 38.5183 164.185 53.2638 178 80L146 46.5Z" fill="#646464"/>
</svg>
