<svg width="132" height="60" viewBox="0 0 132 60" fill="none" xmlns="http://www.w3.org/2000/svg">
<path fill-rule="evenodd" clip-rule="evenodd" d="M8.39273 56.1672C8.71263 55.9213 8.92904 55.6066 9.04194 55.2131C9.16426 54.8295 9.22071 54.2295 9.22071 53.4328V34.7738H6.09696C5.46657 34.7738 4.87381 34.9115 4.3375 35.1869C3.80119 35.4623 3.39661 35.8361 3.13316 36.3082C2.97321 36.5836 2.83208 36.8787 2.71917 37.1934C2.59685 37.5082 2.50276 37.8918 2.41808 38.3344C2.34281 38.777 2.27695 39.2984 2.23932 39.9082C2.20168 40.518 2.16404 41.2361 2.13582 42.0623H0V32H21.8851V42.0525H19.7869C19.7869 40.7836 19.7493 39.8098 19.6834 39.1311C19.6175 38.4525 19.514 37.882 19.3823 37.4098C19.0906 36.5836 18.6861 35.9344 18.1592 35.4623C17.6323 34.9902 17.0019 34.7541 16.2586 34.7541H12.8149V53.4131C12.8149 54.2098 12.8714 54.8098 12.9749 55.1934C13.0784 55.577 13.2948 55.9115 13.6053 56.1869H13.53C13.8499 56.4033 14.198 56.5705 14.5744 56.6787C14.9601 56.7869 15.4212 56.8459 15.9763 56.8459H16.936V59.6393H5.06198V56.8262H6.04992C7.10371 56.8262 7.89406 56.6098 8.42096 56.1672H8.39273Z" fill="white"/>
<path fill-rule="evenodd" clip-rule="evenodd" d="M41.0886 54.1311C41.9354 53.1672 42.5846 51.977 43.0457 50.5508C43.5067 49.1344 43.7419 47.5803 43.7419 45.8984C43.7419 42.7016 42.9798 40.0656 41.4462 38C40.6558 36.8689 39.6961 36.0525 38.5576 35.541C37.4192 35.0295 36.0078 34.7738 34.3236 34.7738H31.5574V56.8656H34.4365C35.942 56.8656 37.231 56.6492 38.2942 56.2066C39.3668 55.7639 40.2983 55.0754 41.0886 54.1311ZM27.2011 56.2066C27.521 55.9311 27.728 55.5967 27.8315 55.2131C27.935 54.8295 27.9915 54.2295 27.9915 53.4328V38.1672C27.9915 37.3902 27.935 36.8197 27.8315 36.4262C27.728 36.0426 27.5116 35.7082 27.2011 35.4328H27.2764C26.9565 35.2164 26.6083 35.0492 26.2038 34.941C25.8086 34.8328 25.3476 34.7738 24.8207 34.7738H23.8704V32H36.5347C38.3789 32 39.969 32.3443 41.305 33.0328C42.6411 33.7213 43.8266 34.8131 44.8898 36.2984C45.7837 37.5672 46.4893 39.0426 46.988 40.7246C47.4867 42.4066 47.7407 44.118 47.7407 45.859C47.7407 47.7377 47.4773 49.4984 46.9504 51.1508C46.4235 52.8033 45.6614 54.3082 44.6546 55.6557C42.6223 58.3115 40.176 59.6393 37.3251 59.6393H23.8704V56.8262H24.8207C25.8462 56.8262 26.6648 56.6098 27.2764 56.1672L27.2011 56.2066Z" fill="white"/>
<path fill-rule="evenodd" clip-rule="evenodd" d="M70.689 56.1672C71.0277 55.9213 71.2629 55.6066 71.3852 55.2131C71.5075 54.8295 71.564 54.2295 71.564 53.4328V37.6262C70.2468 41.3246 68.9483 45.0033 67.6687 48.6721C66.3797 52.341 65.1095 56 63.8393 59.6393H61.8634L53.9506 37.5475V53.4328C53.9506 54.2295 54.007 54.8295 54.1105 55.2131C54.214 55.5967 54.4398 55.9311 54.7879 56.2066H54.7503C55.3337 56.6492 56.124 56.8656 57.1213 56.8656H58.0716V59.6393H47.5431V56.8262H48.531C49.5848 56.8262 50.3752 56.6098 50.9021 56.1672H50.8644C51.2032 55.9213 51.429 55.6066 51.5325 55.2131C51.636 54.8295 51.6924 54.2295 51.6924 53.4328V38.1672C51.6924 37.3902 51.636 36.8197 51.5325 36.4262C51.429 36.0426 51.2032 35.7082 50.855 35.4328H50.8927C50.3093 34.9902 49.519 34.7738 48.5216 34.7738H47.5337V32H55.8888L63.6041 53.4721L71.1688 32H79.364V34.8131H78.3384C77.3128 34.8131 76.5319 35.0295 76.005 35.4721H76.0426C75.7039 35.718 75.4687 36.0328 75.3464 36.4066C75.2241 36.7803 75.1676 37.3607 75.1676 38.1672V53.4328C75.1676 54.2295 75.2241 54.8295 75.3464 55.2131C75.4687 55.5967 75.6945 55.9311 76.0426 56.2066H76.005C76.5883 56.6492 77.3599 56.8656 78.3384 56.8656H79.364V59.6393H67.4147V56.8262H68.4026C69.4564 56.8262 70.2373 56.6098 70.736 56.1672H70.689Z" fill="white"/>
<path fill-rule="evenodd" clip-rule="evenodd" d="M92.5458 45.9968C92.5458 48.7214 92.3765 50.9739 92.0378 52.7739C91.6238 54.7607 90.9463 56.4132 89.9866 57.7017C88.914 58.8132 87.6438 59.3739 86.1666 59.3739C84.9529 59.3739 83.7956 58.9116 82.7041 57.987C81.7633 56.9739 81.2928 55.7837 81.2928 54.4361C81.2928 53.8263 81.4434 53.246 81.7444 52.6952C82.0643 52.1542 82.4689 51.8788 82.9676 51.8788C83.5415 51.8788 83.9838 52.0361 84.2848 52.3411C84.6706 52.6952 84.8682 53.187 84.8964 53.8361C84.8306 54.3378 84.6424 54.7804 84.3225 55.1837C84.0214 55.5378 83.8709 55.8624 83.8709 56.1476C83.8709 56.6394 84.059 57.023 84.4448 57.2788C84.8494 57.5148 85.301 57.623 85.7903 57.6034C87.3051 57.5542 88.2648 56.3443 88.6788 53.9837C88.9987 52.2132 89.2057 50.0984 89.2904 47.6296C89.2057 47.7279 89.0646 47.8558 88.8764 48.023C87.7191 48.9181 86.5712 49.3509 85.4139 49.3017C84.5953 49.282 83.7015 48.8984 82.723 48.1607C82.0173 47.6394 81.4622 46.8722 81.0576 45.8493C80.7095 44.6394 80.5401 43.2919 80.5401 41.7968C80.5401 39.6919 80.7095 38.0591 81.0576 36.8984C81.481 35.4329 82.2055 34.2034 83.2028 33.2394C84.1437 32.482 85.2257 32.1083 86.4395 32.1083C87.4933 32.1083 88.5 32.482 89.488 33.2394C90.6829 34.4296 91.4921 36.023 91.9249 38.0296C92.3389 40.1738 92.5458 42.8296 92.5458 45.9968ZM89.3186 45.7509C89.2527 42.3673 89.0928 39.7411 88.8387 37.8722C88.6223 36.5247 88.2836 35.4525 87.8132 34.646C87.4086 34.1247 86.9476 33.8689 86.4301 33.8689C85.8373 33.8689 85.3669 34.105 85.0281 34.5771C84.5389 35.2165 84.2002 35.9247 84.0308 36.7116C83.7768 37.9706 83.645 39.3476 83.645 40.8624C83.645 42.6624 83.7673 44.0591 84.0308 45.0525C84.4824 46.6853 85.254 47.5017 86.336 47.5017C87.3145 47.4919 88.3118 46.9116 89.3186 45.7509Z" fill="white"/>
<path fill-rule="evenodd" clip-rule="evenodd" d="M106.433 49.4689C106.433 51.6919 106.189 53.6689 105.7 55.3902C105.229 56.6 104.41 57.6427 103.263 58.5181C102.538 59.0591 101.729 59.3345 100.826 59.3345C99.245 59.3345 97.9748 58.823 97.0151 57.8099C96.1401 56.8853 95.4532 55.3509 94.964 53.1968C94.5406 51.2296 94.3242 48.7705 94.3242 45.8099C94.3242 42.8 94.5782 40.105 95.0863 37.7148C95.4532 36.1804 96.0648 34.9017 96.9116 33.8886C97.9372 32.6787 99.1133 32.0787 100.44 32.0787C101.832 32.0787 102.98 32.5509 103.902 33.4951C104.994 34.6066 105.53 35.8853 105.53 37.3312C105.53 37.8722 105.389 38.3935 105.116 38.8951C104.796 39.3476 104.392 39.564 103.902 39.564C102.773 39.564 102.199 38.9541 102.199 37.7148C102.199 37.2427 102.341 36.7312 102.613 36.1902C102.783 35.8361 102.914 35.5214 102.999 35.2361C102.943 34.8623 102.726 34.5673 102.359 34.3509C101.832 34.1148 101.296 33.9968 100.76 33.9968C100.017 33.9968 99.3955 34.3214 98.8969 34.9509C98.4076 35.5902 98.0783 36.682 97.9089 38.2164C97.6549 40.4492 97.5232 42.2984 97.5232 43.7935C97.8149 43.5082 98.0689 43.2919 98.2571 43.1541C99.3109 42.3968 100.346 42.0132 101.371 42.0132C103.234 42.0132 104.712 43.2033 105.822 45.564C106.236 46.7443 106.433 48.0427 106.433 49.4689ZM102.971 50.1771C102.971 48.7115 102.83 47.4525 102.548 46.4099C102.058 44.6591 101.334 43.7837 100.365 43.7837C99.4896 43.7837 98.577 44.3148 97.6361 45.3869C97.6361 45.3869 97.589 45.4361 97.5138 45.5345C97.5138 48.2591 97.6079 50.5509 97.796 52.4197C97.9748 54.0328 98.3323 55.3705 98.8875 56.4328C99.2544 57.1705 99.7343 57.5443 100.336 57.5738C100.788 57.5935 101.193 57.3869 101.56 56.9345C102.011 56.4132 102.341 55.6164 102.548 54.5246C102.83 52.9017 102.971 51.4558 102.971 50.1771Z" fill="white"/>
<path d="M131.5 60L107 34.5L130 11C119.427 31.7406 121.68 42.1926 131.5 60Z" fill="#595858"/>
<path d="M121.5 15L107 0C113.554 11.8146 113.593 18.3612 107.5 30L121.5 15Z" fill="#6C83B6"/>
</svg>
