<svg width="24" height="23" viewBox="0 0 24 23" fill="none" xmlns="http://www.w3.org/2000/svg">
<path d="M18.4867 22.6266C18.2625 22.626 18.039 22.6014 17.82 22.5533C13.6511 21.6909 9.8104 19.6689 6.74 16.72C3.73511 13.7646 1.65106 10.0017 0.739997 5.88664C0.632571 5.37378 0.658938 4.8419 0.81656 4.34218C0.974182 3.84246 1.25776 3.39172 1.64 3.03331L4.30666 0.46664C4.44287 0.337832 4.6047 0.239193 4.78161 0.177161C4.95851 0.11513 5.14651 0.0910999 5.33333 0.10664C5.52704 0.126849 5.71397 0.189249 5.88098 0.289452C6.04798 0.389656 6.19101 0.52523 6.3 0.68664L9.63333 5.61331C9.75833 5.80447 9.81867 6.03071 9.80547 6.25873C9.79227 6.48675 9.70622 6.70451 9.56 6.87997L7.88666 8.87997C8.5531 10.3549 9.49689 11.688 10.6667 12.8066C11.8289 13.9658 13.2026 14.8914 14.7133 15.5333L16.7867 13.8866C16.9608 13.749 17.1727 13.6677 17.3942 13.6534C17.6157 13.6391 17.8363 13.6925 18.0267 13.8066L23.06 17.06C23.2327 17.1631 23.3799 17.304 23.4904 17.4721C23.601 17.6401 23.6721 17.8311 23.6984 18.0305C23.7247 18.2299 23.7055 18.4328 23.6423 18.6237C23.579 18.8147 23.4734 18.9889 23.3333 19.1333L20.7333 21.7066C20.438 22.0005 20.0874 22.2331 19.7019 22.391C19.3163 22.5489 18.9033 22.629 18.4867 22.6266ZM5.22666 1.42664L2.56 3.99331C2.34496 4.19367 2.18579 4.44656 2.09812 4.7271C2.01045 5.00763 1.99731 5.30615 2.06 5.59331C2.90714 9.45473 4.85448 12.9882 7.66666 15.7666C10.5561 18.541 14.1704 20.4429 18.0933 21.2533C18.3903 21.3154 18.698 21.3028 18.9888 21.2167C19.2797 21.1306 19.5447 20.9737 19.76 20.76L22.36 18.1866L17.5 15.0466L15.2733 16.82C15.1881 16.8874 15.0876 16.933 14.9807 16.9528C14.8738 16.9725 14.7637 16.9659 14.66 16.9333C12.8111 16.2521 11.1356 15.1708 9.75333 13.7666C8.32357 12.4314 7.21375 10.7906 6.50666 8.96664C6.47675 8.85622 6.47576 8.73995 6.50378 8.62903C6.5318 8.51812 6.58789 8.41627 6.66666 8.33331L8.46666 6.17997L5.22666 1.42664Z" fill="#436DE1"/>
</svg>
